<svg xmlns="http://www.w3.org/2000/svg" id="Layer_1" version="1.1" viewBox="55.31 129.1 701.15 278.27">
  <!-- Generator: Adobe Illustrator 29.7.1, SVG Export Plug-In . SVG Version: 2.1.1 Build 8)  -->
  <defs>
    <style>
      .st0 {
        fill: #5188c7;
      }

      .st1 {
        fill: #231f20;
      }

      .st2 {
        fill: #fff;
      }

      .st3 {
        fill: #417bbf;
      }

      .st4 {
        fill: #3872ab;
      }
    </style>
  </defs>
  <g>
    <path class="st0" d="M375.41,386.48c0-.62.11-1.2.34-1.75.23-.55.54-1.03.95-1.44.4-.41.88-.72,1.44-.95.55-.23,1.13-.34,1.75-.34s1.2.11,1.75.34,1.03.54,1.44.95c.4.41.72.88.95,1.44.23.55.34,1.14.34,1.75s-.11,1.2-.34,1.75c-.23.55-.55,1.03-.95,1.44-.41.41-.88.72-1.44.95s-1.14.34-1.75.34-1.2-.12-1.75-.34c-.56-.23-1.03-.54-1.44-.95-.41-.41-.72-.88-.95-1.44-.23-.55-.34-1.14-.34-1.75Z"/>
    <path class="st0" d="M413.16,365.15c-.75-.91-1.67-1.61-2.75-2.09-1.09-.49-2.34-.73-3.77-.73s-2.75.28-3.97.83-2.27,1.32-3.16,2.31c-.89.99-1.59,2.17-2.09,3.53-.51,1.36-.76,2.84-.76,4.43s.25,3.11.76,4.46c.5,1.35,1.19,2.52,2.07,3.51.88.99,1.91,1.76,3.09,2.31,1.18.55,2.46.83,3.82.83,1.56,0,2.94-.32,4.14-.97,1.2-.65,2.19-1.56,2.97-2.73l6.33,4.72c-1.46,2.05-3.31,3.56-5.55,4.53-2.24.97-4.55,1.46-6.92,1.46-2.7,0-5.18-.42-7.45-1.27-2.27-.84-4.24-2.05-5.89-3.63-1.66-1.57-2.95-3.48-3.87-5.72s-1.39-4.74-1.39-7.5.46-5.26,1.39-7.5,2.22-4.15,3.87-5.72,3.62-2.78,5.89-3.63c2.27-.84,4.75-1.27,7.45-1.27.97,0,1.99.09,3.04.27,1.05.18,2.09.46,3.12.85,1.02.39,2,.91,2.95,1.56.94.65,1.78,1.44,2.53,2.39l-5.84,4.77Z"/>
    <path class="st0" d="M422.12,373.42c0-2.76.46-5.26,1.39-7.5s2.21-4.15,3.87-5.72,3.62-2.78,5.89-3.63c2.27-.84,4.76-1.27,7.45-1.27s5.18.42,7.45,1.27c2.27.84,4.24,2.05,5.89,3.63s2.95,3.48,3.87,5.72,1.39,4.74,1.39,7.5-.46,5.26-1.39,7.5-2.22,4.15-3.87,5.72c-1.66,1.58-3.62,2.78-5.89,3.63-2.27.84-4.75,1.27-7.45,1.27s-5.18-.42-7.45-1.27c-2.27-.84-4.24-2.05-5.89-3.63-1.66-1.57-2.94-3.48-3.87-5.72s-1.39-4.74-1.39-7.5ZM430.01,373.42c0,1.63.25,3.11.76,4.46s1.22,2.52,2.17,3.51c.94.99,2.07,1.76,3.38,2.31,1.32.55,2.78.83,4.41.83s3.09-.28,4.41-.83,2.44-1.32,3.39-2.31c.94-.99,1.66-2.16,2.16-3.51.51-1.35.76-2.83.76-4.46s-.25-3.07-.76-4.43c-.5-1.36-1.22-2.54-2.16-3.53-.94-.99-2.07-1.76-3.39-2.31s-2.78-.83-4.41-.83-3.09.28-4.41.83c-1.31.55-2.44,1.32-3.38,2.31-.94.99-1.67,2.17-2.17,3.53s-.76,2.84-.76,4.43Z"/>
    <path class="st0" d="M464.48,356.19h11.5l7.94,22.5h.1l7.99-22.5h11.44v34.48h-7.6v-26.44h-.1l-9.06,26.44h-5.79l-8.72-26.44h-.1v26.44h-7.6v-34.48Z"/>
  </g>
  <g>
    <path class="st1" d="M374.8,138.77h19.05l13.16,37.3h.16l13.24-37.3h18.97v57.16h-12.6v-43.84h-.16l-15.02,43.84h-9.61l-14.45-43.84h-.16v43.84h-12.59v-57.16Z"/>
    <path class="st1" d="M465.05,171.54l-21.47-32.78h15.66l12.11,21.39,12.84-21.39h14.93l-21.47,32.78v24.38h-12.59v-24.38Z"/>
  </g>
  <g>
    <path class="st1" d="M406.82,223.96c-1.02-1.29-2.41-2.25-4.16-2.87-1.75-.62-3.4-.93-4.96-.93-.92,0-1.86.11-2.83.32-.97.22-1.88.55-2.74,1.01-.86.46-1.56,1.06-2.1,1.82-.54.76-.81,1.67-.81,2.75,0,1.72.64,3.04,1.94,3.95,1.29.92,2.92,1.7,4.88,2.34s4.08,1.29,6.34,1.94c2.26.64,4.37,1.56,6.34,2.74s3.59,2.77,4.88,4.76c1.29,1.99,1.94,4.66,1.94,7.99s-.6,5.95-1.78,8.31c-1.18,2.37-2.78,4.33-4.8,5.89-2.02,1.56-4.36,2.72-7.02,3.47-2.66.75-5.48,1.13-8.44,1.13-3.71,0-7.16-.57-10.33-1.7s-6.14-2.96-8.88-5.49l8.96-9.85c1.29,1.72,2.92,3.06,4.88,4,1.96.94,4,1.41,6.1,1.41,1.02,0,2.06-.12,3.11-.36s1.99-.61,2.82-1.09,1.51-1.1,2.02-1.86c.51-.75.76-1.64.76-2.66,0-1.72-.66-3.08-1.98-4.08-1.32-.99-2.98-1.84-4.96-2.54-1.99-.7-4.14-1.4-6.46-2.1-2.31-.7-4.47-1.64-6.46-2.82-1.99-1.18-3.65-2.75-4.96-4.68-1.32-1.94-1.98-4.49-1.98-7.67s.61-5.76,1.82-8.07c1.21-2.31,2.83-4.25,4.84-5.81,2.02-1.56,4.35-2.73,6.98-3.51,2.64-.78,5.36-1.17,8.15-1.17,3.23,0,6.35.46,9.36,1.37,3.02.92,5.73,2.45,8.16,4.6l-8.64,9.44Z"/>
    <path class="st1" d="M424.91,210h19.05l13.16,37.3h.16l13.24-37.3h18.97v57.16h-12.59v-43.84h-.16l-15.02,43.84h-9.61l-14.45-43.84h-.16v43.84h-12.6v-57.16Z"/>
    <path class="st1" d="M519.93,210h10.41l24.87,57.16h-14.21l-4.92-12.11h-22.2l-4.76,12.11h-13.89l24.7-57.16ZM524.77,226.63l-6.94,17.76h13.97l-7.02-17.76Z"/>
    <path class="st1" d="M560.94,210h22.12c2.9,0,5.66.28,8.27.85,2.61.57,4.9,1.51,6.86,2.83,1.96,1.32,3.52,3.1,4.68,5.33,1.16,2.23,1.74,5.02,1.74,8.35,0,4.04-1.05,7.47-3.15,10.29-2.1,2.82-5.16,4.61-9.2,5.37l14.53,24.14h-15.1l-11.95-22.85h-6.21v22.85h-12.6v-57.16ZM573.53,233.65h7.43c1.13,0,2.33-.04,3.59-.12s2.41-.32,3.43-.73c1.02-.4,1.87-1.04,2.54-1.9.67-.86,1.01-2.07,1.01-3.63,0-1.45-.3-2.61-.89-3.47-.59-.86-1.35-1.52-2.26-1.98-.92-.46-1.96-.77-3.15-.93-1.18-.16-2.34-.24-3.47-.24h-8.23v13Z"/>
    <path class="st1" d="M622.86,221.14h-16.31v-11.14h45.21v11.14h-16.31v46.02h-12.59v-46.02Z"/>
  </g>
  <g>
    <path class="st1" d="M373.79,282.8h38.83v11.63h-26.24v10.66h24.79v11.63h-24.79v11.63h27.69v11.63h-40.28v-57.16Z"/>
    <path class="st1" d="M452.42,296.76c-1.02-1.29-2.41-2.25-4.16-2.87-1.75-.62-3.4-.93-4.96-.93-.92,0-1.86.11-2.83.32-.97.22-1.88.55-2.74,1.01-.86.46-1.56,1.06-2.1,1.82-.54.76-.81,1.67-.81,2.75,0,1.72.64,3.04,1.94,3.95,1.29.92,2.92,1.7,4.88,2.34s4.08,1.29,6.34,1.94c2.26.64,4.37,1.56,6.34,2.74s3.59,2.77,4.88,4.76c1.29,1.99,1.94,4.66,1.94,7.99s-.6,5.95-1.78,8.31c-1.18,2.37-2.78,4.33-4.8,5.89-2.02,1.56-4.36,2.72-7.02,3.47-2.66.75-5.48,1.13-8.44,1.13-3.71,0-7.16-.57-10.33-1.7-3.18-1.13-6.14-2.96-8.88-5.49l8.96-9.85c1.29,1.72,2.92,3.06,4.88,4,1.96.94,4,1.41,6.1,1.41,1.02,0,2.06-.12,3.11-.36s1.99-.61,2.82-1.09,1.51-1.1,2.02-1.86c.51-.75.76-1.64.76-2.66,0-1.72-.66-3.08-1.98-4.08-1.32-.99-2.98-1.84-4.96-2.54-1.99-.7-4.14-1.4-6.46-2.1-2.31-.7-4.47-1.64-6.46-2.82-1.99-1.18-3.65-2.75-4.96-4.68-1.32-1.94-1.98-4.49-1.98-7.67s.61-5.76,1.82-8.07c1.21-2.31,2.83-4.25,4.84-5.81,2.02-1.56,4.35-2.73,6.98-3.51,2.64-.78,5.36-1.17,8.15-1.17,3.23,0,6.35.46,9.36,1.37,3.02.92,5.73,2.45,8.16,4.6l-8.64,9.44Z"/>
    <path class="st1" d="M481.57,293.94h-16.31v-11.14h45.21v11.14h-16.31v46.02h-12.59v-46.02Z"/>
    <path class="st1" d="M516.68,282.8h12.6v57.16h-12.6v-57.16Z"/>
    <path class="st1" d="M540.74,282.8h19.05l13.16,37.3h.16l13.24-37.3h18.97v57.16h-12.59v-43.84h-.16l-15.02,43.84h-9.61l-14.45-43.84h-.16v43.84h-12.6v-57.16Z"/>
    <path class="st1" d="M635.76,282.8h10.41l24.87,57.16h-14.21l-4.92-12.11h-22.2l-4.76,12.11h-13.89l24.7-57.16ZM640.6,299.43l-6.94,17.76h13.97l-7.02-17.76Z"/>
    <path class="st1" d="M680.4,293.94h-16.31v-11.14h45.21v11.14h-16.31v46.02h-12.59v-46.02Z"/>
    <path class="st1" d="M716.17,282.8h38.83v11.63h-26.23v10.66h24.78v11.63h-24.78v11.63h27.69v11.63h-40.29v-57.16Z"/>
  </g>
  <g>
    <rect class="st0" x="55.31" y="129.1" width="285.82" height="278.27" rx="12.18" ry="12.18"/>
    <g>
      <rect class="st3" x="55.31" y="315.5" width="285.48" height="8.2"/>
      <rect class="st4" x="145.21" y="130.95" width="8.2" height="276.42"/>
      <rect class="st3" x="245.12" y="130.95" width="8.2" height="276.42"/>
      <rect class="st4" x="55.31" y="218.71" width="285.48" height="8.2"/>
      <rect class="st3" x="245.46" y="218.85" width="95.66" height="7.92"/>
    </g>
    <path class="st2" d="M177.33,274.59l-26.93-30.72s-4.16-2.31-7.16-.43c-2.51,1.57-7.47,5.11-9.11,7.57-1.05,1.57-1.55,4.33-.45,7.53l38.65,44.32s6.08,3.13,10.65.63l90.88-81.69s2.47-2.89-.53-7.12c0,0-6.23-7.26-8.55-9.66-1.98-2.05-4.21-3.47-8.34-.16l-79.12,69.73Z"/>
  </g>
</svg>